<svg width="6894" height="1331" viewBox="0 0 6894 1331" fill="none" xmlns="http://www.w3.org/2000/svg">
<path d="M5264.22 609.964L6166.4 335.92L6255.91 954.714C6061.84 951.227 5736.38 946.668 5477.74 926.891C5209.63 906.39 5128.69 893.211 5098.79 785.686C5072.94 692.752 5184.95 636.392 5264.22 609.964Z" fill="#232531"/>
<path d="M6375.54 948.46C6661.88 911.158 6875.38 737.893 6852.41 561.46C6829.44 385.027 6578.69 272.239 6292.35 309.54C6006.01 346.842 5792.51 520.108 5815.48 696.54C5838.46 872.973 6089.2 985.761 6375.54 948.46Z" fill="#8993BE"/>
<path fill-rule="evenodd" clip-rule="evenodd" d="M5956.25 818.228L6013.55 528.079H6146.04C6203.34 531.662 6231.99 560.316 6231.99 610.469C6231.99 696.439 6163.95 746.588 6103.07 743.005H6038.61L6024.29 818.228H5956.25ZM6052.93 689.276L6070.84 581.811H6117.39C6142.46 581.811 6160.37 592.557 6160.37 614.048C6156.79 674.947 6128.14 685.693 6095.91 689.276H6052.94H6052.93ZM6218.67 743.005L6275.97 452.859H6344.01L6329.69 528.079H6394.14C6451.44 531.662 6472.93 560.316 6465.77 596.14L6440.7 743.005H6369.08L6394.15 610.469C6397.73 592.557 6397.73 581.811 6372.66 581.811H6318.95L6286.72 743.005H6218.67V743.005ZM6436.11 818.228L6493.41 528.079H6625.91C6683.21 531.662 6711.86 560.316 6711.86 610.469C6711.86 696.439 6643.82 746.588 6582.94 743.005H6518.48L6504.15 818.228H6436.11V818.228ZM6532.8 689.276L6550.71 581.811H6597.26C6622.33 581.811 6640.23 592.557 6640.23 614.048C6636.66 674.947 6608.01 685.693 6575.78 689.276H6532.8H6532.8Z" fill="#232531"/>
<path d="M5292.54 705.26L5287.49 734.975H5212.33L5217.39 705.26H5292.54ZM5236.4 677.922H5277.39L5260.01 782.668C5259.77 784.252 5259.82 785.59 5260.16 786.679C5260.51 787.719 5261.2 788.512 5262.24 789.056C5263.33 789.552 5264.77 789.799 5266.55 789.799C5267.74 789.799 5269.2 789.651 5270.93 789.353C5272.66 789.007 5273.98 788.759 5274.87 788.611L5276.06 817.434C5273.98 818.028 5271.18 818.697 5267.66 819.44C5264.2 820.232 5260.16 820.752 5255.56 821C5245.95 821.446 5238.13 820.43 5232.09 817.954C5226.1 815.478 5221.94 811.615 5219.61 806.365C5217.34 801.066 5216.94 794.454 5218.42 786.531L5236.4 677.922Z" fill="#CAD4FE"/>
<path d="M5371.06 824.37C5353.73 824.37 5339.45 820.937 5328.22 814.073C5317.06 807.14 5309.23 797.502 5304.72 785.161C5300.22 772.75 5299.32 758.363 5302.02 742C5304.72 725.637 5310.37 711.284 5318.97 698.943C5327.56 686.532 5338.62 676.894 5352.13 670.03C5365.65 663.097 5381.11 659.63 5398.51 659.63C5415.77 659.63 5429.98 663.097 5441.14 670.03C5452.36 676.894 5460.23 686.532 5464.74 698.943C5469.31 711.284 5470.25 725.637 5467.54 742C5464.84 758.363 5459.16 772.75 5450.49 785.161C5441.83 797.502 5430.74 807.14 5417.22 814.073C5403.77 820.937 5388.39 824.37 5371.06 824.37ZM5378.13 781.937C5383.12 781.937 5387.66 780.307 5391.75 777.048C5395.91 773.79 5399.44 769.144 5402.35 763.112C5405.33 757.08 5407.52 749.904 5408.9 741.584C5410.29 733.194 5410.5 726.018 5409.53 720.055C5408.56 714.023 5406.55 709.378 5403.5 706.119C5400.45 702.86 5396.43 701.231 5391.44 701.231C5386.45 701.231 5381.87 702.86 5377.71 706.119C5373.55 709.378 5370.02 714.023 5367.11 720.055C5364.19 726.018 5362.05 733.194 5360.66 741.584C5359.27 749.904 5359.03 757.08 5359.93 763.112C5360.9 769.144 5362.91 773.79 5365.96 777.048C5369.08 780.307 5373.14 781.937 5378.13 781.937Z" fill="#CAD4FE"/>
<path d="M5548.13 715.416L5531.02 818.11H5465.42L5495.84 635.542H5558.11L5552.4 670.249H5554.31C5560.09 658.601 5568.53 649.528 5579.62 643.03C5590.79 636.453 5603.1 633.165 5616.57 633.165C5629.48 633.165 5640.22 636.096 5648.77 641.96C5657.33 647.824 5663.39 655.906 5666.95 666.208C5670.52 676.509 5671.15 688.315 5668.85 701.628L5649.37 818.11H5583.77L5600.89 715.416C5602.39 706.382 5601.28 699.29 5597.56 694.14C5593.91 688.989 5587.89 686.414 5579.5 686.414C5574.19 686.414 5569.32 687.602 5564.88 689.98C5560.52 692.277 5556.88 695.606 5553.95 699.964C5551.1 704.243 5549.16 709.393 5548.13 715.416Z" fill="#CAD4FE"/>
<path d="M5770.62 822.271C5746.26 822.271 5726.06 817.615 5710.02 808.305C5693.97 798.895 5682.69 785.424 5676.15 767.892C5669.62 750.261 5668.43 729.164 5672.59 704.599C5676.55 681.026 5684.72 660.423 5697.09 642.792C5709.57 625.161 5725.27 611.443 5744.18 601.637C5763.19 591.831 5784.48 586.928 5808.05 586.928C5825.28 586.928 5840.38 589.603 5853.35 594.951C5866.42 600.3 5877.07 608.075 5885.29 618.277C5893.51 628.48 5899.05 640.811 5901.92 655.273C5904.89 669.635 5904.89 685.879 5901.92 704.005L5898.95 723.023H5695.16L5702.29 677.856H5830.63C5831.62 671.319 5830.97 665.574 5828.7 660.621C5826.52 655.57 5823 651.657 5818.15 648.884C5813.4 646.011 5807.65 644.575 5800.92 644.575C5794.19 644.575 5787.85 646.011 5781.91 648.884C5776.06 651.756 5771.06 655.768 5766.91 660.918C5762.85 666.069 5760.12 672.111 5758.74 679.045L5749.82 726.588C5748.64 733.918 5749.08 740.455 5751.16 746.2C5753.24 751.945 5756.85 756.452 5762 759.721C5767.15 762.989 5773.79 764.624 5781.91 764.624C5787.45 764.624 5792.7 763.881 5797.65 762.395C5802.7 760.81 5807.16 758.532 5811.02 755.561C5814.98 752.49 5818.15 748.776 5820.53 744.417H5895.39C5890.04 760.265 5881.57 774.033 5869.99 785.721C5858.5 797.31 5844.34 806.324 5827.51 812.762C5810.77 819.101 5791.81 822.271 5770.62 822.271Z" fill="#CAD4FE"/>
<path d="M4502.43 776L4538.65 557.818H4597.45L4583.82 640.915H4584.67C4587.65 635.375 4591.6 630.297 4596.5 625.68C4601.4 620.993 4607.15 617.264 4613.75 614.494C4620.36 611.653 4627.71 610.233 4635.81 610.233C4646.6 610.233 4656.37 613.109 4665.1 618.862C4673.91 624.615 4680.34 633.67 4684.39 646.028C4688.51 658.386 4688.93 674.437 4685.66 694.182C4682.54 713.074 4677 728.734 4669.05 741.163C4661.09 753.592 4651.72 762.861 4640.92 768.969C4630.13 775.077 4618.9 778.131 4607.26 778.131C4599.59 778.131 4592.94 776.888 4587.33 774.402C4581.79 771.845 4577.28 768.401 4573.8 764.068C4570.39 759.665 4568.05 754.693 4566.77 749.153H4565.07L4560.81 776H4502.43ZM4573.59 694.182C4572.31 702.136 4572.24 709.026 4573.38 714.849C4574.51 720.602 4576.75 725.077 4580.09 728.273C4583.43 731.398 4587.8 732.96 4593.19 732.96C4598.59 732.96 4603.46 731.433 4607.79 728.379C4612.12 725.254 4615.78 720.815 4618.76 715.062C4621.74 709.239 4623.88 702.278 4625.15 694.182C4626.43 686.085 4626.54 679.161 4625.47 673.408C4624.41 667.584 4622.24 663.145 4618.97 660.091C4615.71 656.966 4611.38 655.403 4605.98 655.403C4600.58 655.403 4595.68 656.966 4591.28 660.091C4586.87 663.145 4583.14 667.584 4580.09 673.408C4577.04 679.161 4574.87 686.085 4573.59 694.182ZM4717.44 837.364C4710.62 837.364 4704.26 836.831 4698.37 835.766C4692.47 834.771 4687.32 833.386 4682.92 831.611L4702.74 789.849C4707.28 791.554 4711.47 792.655 4715.31 793.152C4719.21 793.649 4722.66 793.365 4725.64 792.3C4728.62 791.234 4731.07 789.21 4732.99 786.227L4734.91 783.244L4705.72 612.364H4764.95L4772.41 725.716H4774.11L4819.92 612.364H4883.84L4794.78 789.636C4790.24 798.656 4784.56 806.753 4777.74 813.926C4770.99 821.17 4762.68 826.888 4752.81 831.078C4742.94 835.268 4731.15 837.364 4717.44 837.364Z" fill="white"/>
<path d="M296.875 978.943C238.4 978.943 187.5 969.947 144.176 951.955C101.089 933.725 68.892 908.986 47.5852 877.736C26.2784 846.249 18.9394 810.856 25.5682 771.557C30.7765 741.727 42.9688 714.384 62.1449 689.526C81.5578 664.668 105.469 643.953 133.878 627.381C162.287 610.809 192.472 600.155 224.432 595.42V589.739C185.133 582.636 154.474 564.17 132.457 534.341C110.677 504.511 102.983 469.473 109.375 429.227C115.53 391.112 133.049 357.258 161.932 327.665C191.051 297.835 227.983 274.398 272.727 257.352C317.708 240.307 366.951 231.784 420.455 231.784C473.958 231.784 520.241 240.425 559.304 257.707C598.366 274.753 627.486 298.19 646.662 328.02C665.838 357.613 672.349 391.348 666.193 429.227C659.564 469.947 640.507 505.103 609.02 534.696C577.533 564.289 540.246 582.636 497.159 589.739V595.42C527.699 600.155 554.332 610.809 577.06 627.381C600.024 643.716 616.951 664.312 627.841 689.17C638.731 714.028 641.572 741.491 636.364 771.557C629.735 810.619 610.677 845.894 579.19 877.381C547.704 908.631 507.457 933.37 458.452 951.599C409.683 969.829 355.824 978.943 296.875 978.943ZM319.602 842.58C338.305 842.58 355.469 838.792 371.094 831.216C386.719 823.403 399.74 812.868 410.156 799.611C420.81 786.116 427.557 771.083 430.398 754.511C433.239 737.466 431.581 722.433 425.426 709.412C419.271 696.391 409.446 686.211 395.952 678.872C382.694 671.533 366.714 667.864 348.011 667.864C329.309 667.864 312.027 671.652 296.165 679.227C280.54 686.566 267.519 696.746 257.102 709.767C246.686 722.788 240.057 737.703 237.216 754.511C234.375 771.32 236.032 786.472 242.188 799.966C248.58 813.223 258.523 823.64 272.017 831.216C285.511 838.792 301.373 842.58 319.602 842.58ZM370.739 531.5C387.311 531.5 402.462 528.067 416.193 521.202C430.161 514.099 441.761 504.511 450.994 492.438C460.227 480.364 466.146 466.869 468.75 451.955C471.354 436.566 470.052 423.072 464.844 411.472C459.635 399.634 451.231 390.401 439.631 383.773C428.03 377.144 414.063 373.83 397.727 373.83C381.392 373.83 366.122 377.262 351.918 384.128C337.95 390.757 326.113 399.99 316.406 411.827C306.937 423.427 300.9 436.803 298.295 451.955C295.691 467.106 297.112 480.719 302.557 492.793C308.002 504.63 316.525 514.099 328.125 521.202C339.962 528.067 354.167 531.5 370.739 531.5Z" fill="#23F15D"/>
<path d="M1123.69 481.784C1122.74 469.237 1120.14 458.228 1115.88 448.759C1111.61 439.052 1105.58 430.884 1097.76 424.256C1089.95 417.39 1080.25 412.3 1068.64 408.986C1057.28 405.435 1043.91 403.659 1028.52 403.659C995.373 403.659 965.188 411.59 937.963 427.452C910.738 443.313 887.892 466.159 869.426 495.989C851.197 525.818 838.65 561.803 831.784 603.943C824.682 646.557 824.09 683.015 830.009 713.318C835.927 743.621 848.711 766.822 868.361 782.92C888.247 799.019 915.117 807.068 948.972 807.068C979.275 807.068 1005.43 802.688 1027.45 793.929C1049.47 785.17 1067.11 772.741 1080.36 756.642C1093.62 740.544 1101.91 721.604 1105.22 699.824L1139.31 703.375H973.119L995.847 562.75H1318.29L1301.95 663.602C1291.06 729.89 1267.63 786.59 1231.64 833.702C1195.89 880.577 1151.39 916.562 1098.12 941.656C1044.85 966.514 986.377 978.943 922.693 978.943C852.144 978.943 792.603 963.91 744.071 933.844C695.539 903.777 660.856 860.927 640.023 805.293C619.426 749.658 615.402 683.489 627.949 606.784C637.892 546.652 655.884 493.384 681.926 446.983C708.205 400.581 740.283 361.401 778.162 329.44C816.041 297.243 857.826 272.977 903.517 256.642C949.208 240.07 996.557 231.784 1045.56 231.784C1088.41 231.784 1127.36 237.939 1162.39 250.25C1197.43 262.324 1227.38 279.606 1252.24 302.097C1277.1 324.35 1295.68 350.747 1307.99 381.287C1320.54 411.827 1325.63 445.326 1323.26 481.784H1123.69ZM1342.88 969L1463.62 241.727H1777.54C1831.52 241.727 1877.09 251.552 1914.26 271.202C1951.43 290.851 1978.18 319.142 1994.51 356.074C2010.85 393.006 2014.76 437.276 2006.23 488.886C1997.71 540.97 1978.89 584.885 1949.77 620.634C1920.89 656.145 1884.07 683.134 1839.33 701.599C1794.82 719.829 1744.87 728.943 1689.47 728.943H1501.97L1527.54 575.534H1675.27C1698.47 575.534 1718.83 572.693 1736.35 567.011C1753.87 561.093 1768.07 551.86 1778.96 539.312C1789.85 526.528 1796.95 509.72 1800.27 488.886C1803.58 468.053 1801.92 451.126 1795.3 438.105C1788.67 424.848 1777.66 415.141 1762.27 408.986C1746.88 402.594 1727.82 399.398 1705.1 399.398H1635.5L1540.32 969H1342.88ZM1824.42 635.193L1950.84 969H1736.35L1614.19 635.193H1824.42ZM2020.62 969L2141.35 241.727H2665.5L2638.51 400.818H2311.81L2291.92 525.818H2591.64L2564.65 684.909H2264.93L2245.05 809.909H2570.33L2543.34 969H2020.62ZM2642.69 969L2763.42 241.727H3287.57L3260.58 400.818H2933.88L2913.99 525.818H3213.71L3186.72 684.909H2887L2867.12 809.909H3192.4L3165.41 969H2642.69ZM4014.76 241.727L3894.02 969H3729.25L3530.38 586.898H3526.12L3462.2 969H3264.76L3385.5 241.727H3553.11L3749.13 622.409H3754.81L3817.31 241.727H4014.76Z" fill="#23F15D"/>
<path d="M1568.03 1173.91H1607.24L1588.35 1286.69C1586.74 1296.21 1583.47 1303.67 1578.55 1309.07C1573.62 1314.51 1567.35 1318.35 1559.72 1320.57C1552.15 1322.8 1543.55 1323.91 1533.94 1323.91C1532.76 1323.91 1531.58 1323.89 1530.39 1323.84C1529.16 1323.79 1527.84 1323.72 1526.41 1323.62L1531.24 1294.65C1532.05 1294.74 1532.83 1294.81 1533.59 1294.86C1534.35 1294.91 1535.08 1294.93 1535.79 1294.93C1540.48 1294.93 1543.79 1294.2 1545.73 1292.73C1547.67 1291.26 1548.91 1288.97 1549.43 1285.84L1568.03 1173.91ZM1589.34 1162.55C1584.04 1162.55 1579.75 1160.79 1576.49 1157.29C1573.22 1153.74 1572.01 1149.52 1572.86 1144.65C1573.72 1139.68 1576.32 1135.46 1580.68 1132.01C1585.03 1128.5 1589.86 1126.75 1595.16 1126.75C1600.52 1126.75 1604.78 1128.5 1607.95 1132.01C1611.12 1135.46 1612.3 1139.68 1611.5 1144.65C1610.74 1149.52 1608.19 1153.74 1603.83 1157.29C1599.52 1160.79 1594.69 1162.55 1589.34 1162.55ZM1687.73 1235.27L1697.95 1173.91H1737.16L1718.98 1283H1681.76L1685.17 1262.26H1684.03C1680.67 1269.22 1675.65 1274.67 1668.98 1278.6C1662.35 1282.48 1654.96 1284.42 1646.82 1284.42C1639.19 1284.42 1632.82 1282.67 1627.71 1279.16C1622.6 1275.66 1618.98 1270.83 1616.84 1264.68C1614.71 1258.52 1614.29 1251.47 1615.57 1243.51L1627.21 1173.91H1666.42L1656.19 1235.27C1655.39 1240.67 1656.07 1244.91 1658.25 1247.99C1660.48 1251.06 1664.05 1252.6 1668.98 1252.6C1672.24 1252.6 1675.18 1251.92 1677.78 1250.54C1680.43 1249.12 1682.61 1247.13 1684.32 1244.58C1686.07 1241.97 1687.2 1238.87 1687.73 1235.27ZM1739.2 1283L1757.38 1173.91H1794.6L1791.19 1194.65H1792.32C1795.69 1187.83 1800.44 1182.43 1806.6 1178.45C1812.75 1174.48 1819.64 1172.49 1827.27 1172.49C1834.89 1172.49 1841.14 1174.52 1846.02 1178.6C1850.89 1182.62 1853.36 1187.97 1853.4 1194.65H1854.54C1857.48 1187.97 1862.28 1182.62 1868.96 1178.6C1875.63 1174.52 1883.04 1172.49 1891.19 1172.49C1901.56 1172.49 1909.44 1175.85 1914.84 1182.57C1920.28 1189.3 1922.06 1198.25 1920.16 1209.42L1907.95 1283H1868.74L1879.54 1219.36C1880.2 1214.58 1879.54 1210.84 1877.55 1208.14C1875.56 1205.4 1872.53 1204.02 1868.46 1204.02C1864.44 1204.02 1861.03 1205.4 1858.23 1208.14C1855.49 1210.84 1853.78 1214.58 1853.12 1219.36L1842.32 1283H1804.82L1815.62 1219.36C1816.28 1214.58 1815.62 1210.84 1813.63 1208.14C1811.64 1205.4 1808.61 1204.02 1804.54 1204.02C1801.89 1204.02 1799.47 1204.64 1797.3 1205.87C1795.16 1207.1 1793.39 1208.88 1791.97 1211.2C1790.6 1213.47 1789.67 1216.19 1789.2 1219.36L1778.4 1283H1739.2ZM1920.47 1323.91L1945.61 1173.91H1984.53L1981.4 1192.94H1982.26C1984.25 1189.25 1986.85 1185.86 1990.07 1182.79C1993.34 1179.66 1997.17 1177.18 2001.57 1175.33C2006.03 1173.44 2010.95 1172.49 2016.35 1172.49C2023.54 1172.49 2030.05 1174.41 2035.88 1178.24C2041.7 1182.08 2045.99 1188.11 2048.73 1196.35C2051.48 1204.59 2051.76 1215.29 2049.59 1228.45C2047.5 1241.05 2043.79 1251.49 2038.44 1259.78C2033.13 1268.06 2026.88 1274.24 2019.69 1278.31C2012.54 1282.38 2005.08 1284.42 1997.31 1284.42C1992.2 1284.42 1987.77 1283.59 1984.03 1281.93C1980.29 1280.23 1977.28 1277.93 1975.01 1275.05C1972.74 1272.11 1971.18 1268.8 1970.32 1265.1H1969.47L1959.81 1323.91H1920.47ZM1974.87 1228.45C1974.02 1233.76 1973.95 1238.35 1974.66 1242.23C1975.41 1246.07 1976.91 1249.05 1979.13 1251.18C1981.4 1253.27 1984.34 1254.31 1987.94 1254.31C1991.54 1254.31 1994.76 1253.29 1997.6 1251.25C2000.44 1249.17 2002.85 1246.21 2004.84 1242.38C2006.83 1238.49 2008.3 1233.85 2009.25 1228.45C2010.1 1223.06 2010.17 1218.44 2009.46 1214.61C2008.75 1210.72 2007.3 1207.76 2005.13 1205.73C2002.95 1203.64 2000.06 1202.6 1996.46 1202.6C1992.86 1202.6 1989.57 1203.64 1986.59 1205.73C1983.65 1207.76 1981.17 1210.72 1979.13 1214.61C1977.14 1218.44 1975.72 1223.06 1974.87 1228.45ZM2108.87 1284.99C2097.22 1284.99 2087.57 1282.76 2079.89 1278.31C2072.22 1273.81 2066.83 1267.37 2063.7 1258.99C2060.58 1250.57 2060.01 1240.48 2062 1228.74C2063.89 1217.47 2067.8 1207.62 2073.72 1199.19C2079.68 1190.77 2087.19 1184.21 2096.23 1179.52C2105.32 1174.83 2115.5 1172.49 2126.77 1172.49C2135.01 1172.49 2142.23 1173.77 2148.43 1176.32C2154.68 1178.88 2159.77 1182.6 2163.7 1187.47C2167.63 1192.35 2170.28 1198.25 2171.66 1205.16C2173.08 1212.02 2173.08 1219.79 2171.66 1228.45L2170.24 1237.55H2072.79L2076.2 1215.95H2137.57C2138.04 1212.83 2137.73 1210.08 2136.64 1207.72C2135.6 1205.3 2133.92 1203.43 2131.6 1202.11C2129.33 1200.73 2126.58 1200.05 2123.36 1200.05C2120.14 1200.05 2117.11 1200.73 2114.27 1202.11C2111.48 1203.48 2109.09 1205.4 2107.1 1207.86C2105.16 1210.32 2103.85 1213.21 2103.19 1216.52L2098.93 1239.25C2098.36 1242.75 2098.57 1245.88 2099.57 1248.62C2100.56 1251.37 2102.29 1253.53 2104.75 1255.09C2107.21 1256.65 2110.39 1257.43 2114.27 1257.43C2116.92 1257.43 2119.43 1257.08 2121.8 1256.37C2124.21 1255.61 2126.34 1254.52 2128.19 1253.1C2130.08 1251.63 2131.6 1249.86 2132.74 1247.77H2168.53C2165.97 1255.35 2161.93 1261.93 2156.39 1267.52C2150.89 1273.06 2144.12 1277.37 2136.07 1280.44C2128.07 1283.47 2119 1284.99 2108.87 1284.99ZM2178.56 1283L2196.75 1173.91H2234.81L2231.4 1194.65H2232.54C2235.81 1186.98 2239.9 1181.37 2244.83 1177.82C2249.75 1174.26 2255.13 1172.49 2260.95 1172.49C2262.65 1172.49 2264.29 1172.63 2265.85 1172.91C2267.46 1173.15 2269.05 1173.48 2270.61 1173.91L2264.93 1207.43C2263.08 1206.72 2260.78 1206.22 2258.04 1205.94C2255.29 1205.61 2252.85 1205.44 2250.72 1205.44C2246.93 1205.44 2243.38 1206.32 2240.07 1208.07C2236.8 1209.78 2234.01 1212.19 2231.69 1215.32C2229.42 1218.39 2227.9 1222.02 2227.14 1226.18L2217.77 1283H2178.56ZM2376.93 1209.42H2341.7C2341.89 1207.15 2341.49 1205.21 2340.5 1203.6C2339.5 1201.99 2338.1 1200.76 2336.3 1199.9C2334.55 1199.05 2332.56 1198.62 2330.34 1198.62C2326.46 1198.62 2322.93 1199.5 2319.76 1201.25C2316.58 1202.96 2314.81 1205.21 2314.43 1208C2314.19 1209.09 2314.55 1210.11 2315.5 1211.05C2316.44 1212 2318.93 1212.88 2322.95 1213.68L2344.54 1217.66C2355.34 1219.65 2363.2 1223.27 2368.12 1228.53C2373.09 1233.73 2374.89 1240.62 2373.52 1249.19C2372.24 1256.63 2368.98 1263.02 2363.72 1268.37C2358.46 1273.72 2351.79 1277.84 2343.69 1280.73C2335.64 1283.57 2326.74 1284.99 2316.99 1284.99C2299.8 1284.99 2286.92 1281.56 2278.35 1274.69C2269.83 1267.82 2265.94 1258.85 2266.7 1247.77H2304.77C2304.87 1251.32 2306.05 1254 2308.32 1255.8C2310.64 1257.55 2313.72 1258.47 2317.55 1258.57C2321.72 1258.71 2325.37 1257.88 2328.49 1256.08C2331.62 1254.24 2333.37 1251.94 2333.75 1249.19C2333.89 1247.63 2333.2 1246.45 2331.69 1245.64C2330.22 1244.84 2327.4 1244.03 2323.24 1243.23L2304.49 1239.82C2293.69 1237.88 2285.83 1233.99 2280.91 1228.17C2275.98 1222.3 2274.28 1214.82 2275.79 1205.73C2277.02 1198.48 2279.96 1192.4 2284.6 1187.47C2289.29 1182.55 2295.44 1178.83 2303.07 1176.32C2310.69 1173.77 2319.5 1172.49 2329.49 1172.49C2345.82 1172.49 2358.18 1175.78 2366.56 1182.36C2374.99 1188.89 2378.44 1197.91 2376.93 1209.42Z" fill="white"/>
</svg>
